# xmcd CD database file
#
# Track frame offsets:
#	150
#	20037
#	42637
#	65300
#	80445
#	97900
#	124620
#	140172
#	157470
#	179562
#
# Disc length: 2667 seconds
#
# Revision: 2
# Processed by: cddbd v1.5.1PL0 Copyright (c) Steve Scherf et al.
# Submitted via: CDex 1.50
#
DISCID=910a690a
DTITLE=Nancy Wilson - Keep You Satisfied
DYEAR=1985
DGENRE=Jazz
TTITLE0=Just To Keep You In mY Life
TTITLE1=American Wedding Song
TTITLE2=We've Got Love
TTITLE3=Early Morning
TTITLE4=Winter Green and Summer Blue
TTITLE5=Just To Keep You Satisfied
TTITLE6=Is It Too Late
TTITLE7=Heaven Bound
TTITLE8=Careless Whisper
TTITLE9=If We Were Lovers
EXTD=YEAR: 1985
EXTT0=
EXTT1=
EXTT2=
EXTT3=
EXTT4=
EXTT5=
EXTT6=
EXTT7=
EXTT8=
EXTT9=
PLAYORDER=
